<svg width="97" height="29" viewBox="0 0 97 29" fill="none" xmlns="http://www.w3.org/2000/svg">
<path d="M1.804 7.644H8.91C9.54067 7.644 10.1053 7.73933 10.604 7.93C11.1173 8.12067 11.55 8.38467 11.902 8.722C12.254 9.05933 12.518 9.47733 12.694 9.976C12.8847 10.46 12.98 10.9953 12.98 11.582C12.98 12.1687 12.8993 12.6673 12.738 13.078C12.5913 13.474 12.386 13.804 12.122 14.068C11.8727 14.332 11.5793 14.53 11.242 14.662C10.9193 14.794 10.582 14.8673 10.23 14.882V15.014C10.5673 15.014 10.9267 15.08 11.308 15.212C11.704 15.344 12.0633 15.5567 12.386 15.85C12.7233 16.1287 13.002 16.4953 13.222 16.95C13.442 17.39 13.552 17.94 13.552 18.6C13.552 19.216 13.4493 19.7953 13.244 20.338C13.0533 20.866 12.782 21.328 12.43 21.724C12.078 22.12 11.66 22.4353 11.176 22.67C10.692 22.89 10.164 23 9.592 23H1.804V7.644ZM4.708 20.536H8.756C9.31333 20.536 9.746 20.3967 10.054 20.118C10.362 19.8247 10.516 19.4067 10.516 18.864V18.116C10.516 17.5733 10.362 17.1553 10.054 16.862C9.746 16.5687 9.31333 16.422 8.756 16.422H4.708V20.536ZM4.708 14.046H8.294C8.822 14.046 9.23267 13.9067 9.526 13.628C9.81933 13.3347 9.966 12.9313 9.966 12.418V11.736C9.966 11.2227 9.81933 10.8267 9.526 10.548C9.23267 10.2547 8.822 10.108 8.294 10.108H4.708V14.046ZM17.6239 9.844C17.0372 9.844 16.6119 9.712 16.3479 9.448C16.0986 9.184 15.9739 8.84667 15.9739 8.436V7.996C15.9739 7.58533 16.0986 7.248 16.3479 6.984C16.6119 6.72 17.0372 6.588 17.6239 6.588C18.1959 6.588 18.6139 6.72 18.8779 6.984C19.1419 7.248 19.2739 7.58533 19.2739 7.996V8.436C19.2739 8.84667 19.1419 9.184 18.8779 9.448C18.6139 9.712 18.1959 9.844 17.6239 9.844ZM16.2159 11.516H19.0319V23H16.2159V11.516ZM25.882 23C24.914 23 24.1733 22.7507 23.66 22.252C23.1613 21.7387 22.912 21.0127 22.912 20.074V13.76H21.218V11.516H22.098C22.5233 11.516 22.8093 11.4207 22.956 11.23C23.1173 11.0247 23.198 10.724 23.198 10.328V8.37H25.728V11.516H28.082V13.76H25.728V20.756H27.906V23H25.882ZM36.1914 10.218V23H33.2874V10.218H28.9314V7.644H40.5474V10.218H36.1914ZM45.9516 23.264C45.101 23.264 44.3383 23.1247 43.6636 22.846C43.0036 22.5527 42.439 22.1493 41.9696 21.636C41.515 21.108 41.163 20.4773 40.9136 19.744C40.6643 18.996 40.5396 18.16 40.5396 17.236C40.5396 16.3267 40.657 15.5053 40.8916 14.772C41.141 14.0387 41.493 13.4153 41.9476 12.902C42.4023 12.374 42.9596 11.9707 43.6196 11.692C44.2796 11.3987 45.0276 11.252 45.8636 11.252C46.7583 11.252 47.5356 11.406 48.1956 11.714C48.8556 12.022 49.3983 12.44 49.8236 12.968C50.249 13.496 50.5643 14.112 50.7696 14.816C50.9896 15.5053 51.0996 16.246 51.0996 17.038V17.962H43.4656V18.248C43.4656 19.084 43.7003 19.7587 44.1696 20.272C44.639 20.7707 45.3356 21.02 46.2596 21.02C46.9636 21.02 47.5356 20.8733 47.9756 20.58C48.4303 20.2867 48.8336 19.9127 49.1856 19.458L50.7036 21.152C50.2343 21.812 49.589 22.3327 48.7676 22.714C47.961 23.0807 47.0223 23.264 45.9516 23.264ZM45.9076 13.364C45.1596 13.364 44.5656 13.6133 44.1256 14.112C43.6856 14.6107 43.4656 15.256 43.4656 16.048V16.224H48.1736V16.026C48.1736 15.234 47.9756 14.596 47.5796 14.112C47.1983 13.6133 46.641 13.364 45.9076 13.364ZM57.3392 23.264C56.2392 23.264 55.3152 23.0807 54.5672 22.714C53.8192 22.3327 53.1592 21.812 52.5872 21.152L54.3032 19.48C54.7286 19.964 55.1906 20.3453 55.6892 20.624C56.2026 20.9027 56.7892 21.042 57.4492 21.042C58.1239 21.042 58.6079 20.9247 58.9012 20.69C59.2092 20.4553 59.3632 20.1327 59.3632 19.722C59.3632 19.3847 59.2532 19.1207 59.0332 18.93C58.8279 18.7247 58.4686 18.5853 57.9552 18.512L56.8112 18.358C55.5646 18.1967 54.6112 17.8447 53.9512 17.302C53.3059 16.7447 52.9832 15.938 52.9832 14.882C52.9832 14.3247 53.0859 13.826 53.2912 13.386C53.4966 12.9313 53.7899 12.55 54.1712 12.242C54.5526 11.9193 55.0072 11.6773 55.5352 11.516C56.0779 11.34 56.6792 11.252 57.3392 11.252C57.8966 11.252 58.3879 11.296 58.8132 11.384C59.2532 11.4573 59.6492 11.5747 60.0012 11.736C60.3532 11.8827 60.6759 12.0733 60.9692 12.308C61.2626 12.528 61.5486 12.7773 61.8272 13.056L60.1772 14.706C59.8399 14.354 59.4366 14.0607 58.9672 13.826C58.4979 13.5913 57.9846 13.474 57.4272 13.474C56.8112 13.474 56.3639 13.584 56.0852 13.804C55.8212 14.024 55.6892 14.31 55.6892 14.662C55.6892 15.0433 55.7992 15.3367 56.0192 15.542C56.2539 15.7327 56.6426 15.872 57.1852 15.96L58.3512 16.114C60.8299 16.466 62.0692 17.5953 62.0692 19.502C62.0692 20.0593 61.9519 20.5727 61.7172 21.042C61.4972 21.4967 61.1819 21.8927 60.7712 22.23C60.3606 22.5527 59.8619 22.8093 59.2752 23C58.7032 23.176 58.0579 23.264 57.3392 23.264ZM67.9699 23C67.0019 23 66.2612 22.7507 65.7479 22.252C65.2492 21.7387 64.9999 21.0127 64.9999 20.074V13.76H63.3059V11.516H64.1859C64.6112 11.516 64.8972 11.4207 65.0439 11.23C65.2052 11.0247 65.2859 10.724 65.2859 10.328V8.37H67.8159V11.516H70.1699V13.76H67.8159V20.756H69.9939V23H67.9699Z" fill="white"/>
</svg>
