<svg width="24" height="25" viewBox="0 0 24 25" fill="none" xmlns="http://www.w3.org/2000/svg">
<rect y="0.5" width="24" height="24" rx="4" fill="#222B44"/>
<path d="M18.2788 7.68526H15.2V6.49738C15.2 5.98829 14.7879 5.57617 14.2788 5.57617H9.64849C9.1394 5.57617 8.72728 5.98829 8.72728 6.49738V7.68526H5.72122C4.89698 7.68526 4.24243 8.36405 4.24243 9.16405V10.0125L11.1273 13.2125C11.1758 12.7519 11.5394 12.3883 12 12.3883C12.4606 12.3883 12.8485 12.7519 12.8727 13.2125L19.7576 10.0125V9.16405C19.7576 8.36405 19.103 7.68526 18.2788 7.68526ZM14.7152 7.68526H9.21213V6.49738C9.21213 6.25496 9.40607 6.06102 9.64849 6.06102H14.2788C14.5212 6.06102 14.7152 6.25496 14.7152 6.49738V7.68526Z" fill="#4785FF"/>
<path d="M12.4121 14.3276V13.2852C12.4121 13.067 12.2424 12.873 12 12.873C11.7576 12.873 11.5879 13.0427 11.5879 13.2852V14.3276C11.5879 14.5458 11.7576 14.7397 12 14.7397C12.2424 14.7397 12.4121 14.5458 12.4121 14.3276Z" fill="#4785FF"/>
<path d="M12.897 14.3267C12.897 14.8116 12.5091 15.2237 12 15.2237C11.4909 15.2237 11.103 14.8358 11.103 14.3267V13.7449L4.24243 10.5449V16.9449C4.24243 17.7692 4.89698 18.4237 5.72122 18.4237H18.2788C19.103 18.4237 19.7576 17.7692 19.7576 16.9449V10.5449L12.897 13.7449V14.3267Z" fill="#4785FF"/>
</svg>
